<mxfile host="app.diagrams.net" modified="2020-04-01T06:28:53.679Z" agent="5.0 (Macintosh; Intel Mac OS X 10_15_3) AppleWebKit/537.36 (KHTML, like Gecko) Chrome/80.0.3987.149 Safari/537.36" etag="9CJ1bYk_VQCYfQzv2-59" version="12.9.6" type="github">
  <diagram id="kCpKwJVJHfybIE9ixX9i" name="Page-1">
    <mxGraphModel dx="818" dy="527" grid="1" gridSize="10" guides="1" tooltips="1" connect="1" arrows="1" fold="1" page="1" pageScale="1" pageWidth="827" pageHeight="1169" math="0" shadow="0">
      <root>
        <mxCell id="0" />
        <mxCell id="1" parent="0" />
        <mxCell id="SZwGPWXOhueTDgwkdfKL-43" value="" style="rounded=0;whiteSpace=wrap;html=1;dashed=1;" parent="1" vertex="1">
          <mxGeometry x="332.5" y="672" width="126" height="170" as="geometry" />
        </mxCell>
        <mxCell id="SZwGPWXOhueTDgwkdfKL-1" value="" style="rounded=0;whiteSpace=wrap;html=1;fillColor=none;labelPosition=center;verticalLabelPosition=middle;align=center;verticalAlign=middle;" parent="1" vertex="1">
          <mxGeometry x="243" y="435" width="297" height="180" as="geometry" />
        </mxCell>
        <mxCell id="SZwGPWXOhueTDgwkdfKL-6" value="查询请求发起方" style="rounded=0;whiteSpace=wrap;html=1;" parent="1" vertex="1">
          <mxGeometry x="342" y="323" width="99" height="30" as="geometry" />
        </mxCell>
        <mxCell id="SZwGPWXOhueTDgwkdfKL-7" value="" style="edgeStyle=orthogonalEdgeStyle;rounded=0;orthogonalLoop=1;jettySize=auto;html=1;entryX=0.25;entryY=1;entryDx=0;entryDy=0;exitX=0.5;exitY=0;exitDx=0;exitDy=0;" parent="1" source="SZwGPWXOhueTDgwkdfKL-52" target="SZwGPWXOhueTDgwkdfKL-1" edge="1">
          <mxGeometry relative="1" as="geometry">
            <mxPoint x="240" y="465.0000000000002" as="targetPoint" />
            <mxPoint x="240" y="675" as="sourcePoint" />
          </mxGeometry>
        </mxCell>
        <mxCell id="SZwGPWXOhueTDgwkdfKL-80" value="密文" style="text;html=1;align=center;verticalAlign=middle;resizable=0;points=[];labelBackgroundColor=#ffffff;" parent="SZwGPWXOhueTDgwkdfKL-7" vertex="1" connectable="0">
          <mxGeometry x="0.0377" relative="1" as="geometry">
            <mxPoint as="offset" />
          </mxGeometry>
        </mxCell>
        <mxCell id="SZwGPWXOhueTDgwkdfKL-9" value="数据接入节点DS2" style="rounded=0;whiteSpace=wrap;html=1;" parent="1" vertex="1">
          <mxGeometry x="343" y="687" width="108" height="35" as="geometry" />
        </mxCell>
        <mxCell id="SZwGPWXOhueTDgwkdfKL-11" value="任务调度服务" style="rounded=0;whiteSpace=wrap;html=1;" parent="1" vertex="1">
          <mxGeometry x="346" y="373" width="91" height="30" as="geometry" />
        </mxCell>
        <mxCell id="SZwGPWXOhueTDgwkdfKL-12" value="" style="edgeStyle=orthogonalEdgeStyle;rounded=0;orthogonalLoop=1;jettySize=auto;html=1;entryX=0.75;entryY=1;entryDx=0;entryDy=0;exitX=0.451;exitY=-0.004;exitDx=0;exitDy=0;exitPerimeter=0;" parent="1" source="SZwGPWXOhueTDgwkdfKL-58" target="SZwGPWXOhueTDgwkdfKL-1" edge="1">
          <mxGeometry relative="1" as="geometry">
            <mxPoint x="543.5" y="675" as="sourcePoint" />
            <mxPoint x="243" y="644.6600000000002" as="targetPoint" />
          </mxGeometry>
        </mxCell>
        <mxCell id="SZwGPWXOhueTDgwkdfKL-78" value="密文" style="text;html=1;align=center;verticalAlign=middle;resizable=0;points=[];labelBackgroundColor=#ffffff;" parent="SZwGPWXOhueTDgwkdfKL-12" vertex="1" connectable="0">
          <mxGeometry x="0.1917" y="1" relative="1" as="geometry">
            <mxPoint as="offset" />
          </mxGeometry>
        </mxCell>
        <mxCell id="SZwGPWXOhueTDgwkdfKL-14" value="" style="endArrow=classic;html=1;entryX=0.5;entryY=0;entryDx=0;entryDy=0;exitX=0.5;exitY=1;exitDx=0;exitDy=0;" parent="1" source="SZwGPWXOhueTDgwkdfKL-11" target="SZwGPWXOhueTDgwkdfKL-1" edge="1">
          <mxGeometry width="50" height="50" relative="1" as="geometry">
            <mxPoint x="290" y="455" as="sourcePoint" />
            <mxPoint x="340" y="405" as="targetPoint" />
          </mxGeometry>
        </mxCell>
        <mxCell id="SZwGPWXOhueTDgwkdfKL-15" value="" style="endArrow=classic;html=1;entryX=0.5;entryY=0;entryDx=0;entryDy=0;exitX=0.5;exitY=1;exitDx=0;exitDy=0;" parent="1" source="SZwGPWXOhueTDgwkdfKL-6" target="SZwGPWXOhueTDgwkdfKL-11" edge="1">
          <mxGeometry width="50" height="50" relative="1" as="geometry">
            <mxPoint x="290" y="466" as="sourcePoint" />
            <mxPoint x="340" y="416" as="targetPoint" />
          </mxGeometry>
        </mxCell>
        <mxCell id="SZwGPWXOhueTDgwkdfKL-17" value="" style="endArrow=classic;html=1;entryX=0;entryY=0.5;entryDx=0;entryDy=0;exitX=1;exitY=0.5;exitDx=0;exitDy=0;" parent="1" source="SZwGPWXOhueTDgwkdfKL-1" target="SZwGPWXOhueTDgwkdfKL-69" edge="1">
          <mxGeometry width="50" height="50" relative="1" as="geometry">
            <mxPoint x="290" y="465" as="sourcePoint" />
            <mxPoint x="595" y="525" as="targetPoint" />
          </mxGeometry>
        </mxCell>
        <mxCell id="SZwGPWXOhueTDgwkdfKL-77" value="密文" style="text;html=1;align=center;verticalAlign=middle;resizable=0;points=[];labelBackgroundColor=#ffffff;" parent="SZwGPWXOhueTDgwkdfKL-17" vertex="1" connectable="0">
          <mxGeometry x="-0.056" y="3" relative="1" as="geometry">
            <mxPoint as="offset" />
          </mxGeometry>
        </mxCell>
        <mxCell id="SZwGPWXOhueTDgwkdfKL-22" value="存证" style="rounded=0;whiteSpace=wrap;html=1;fillColor=none;" parent="1" vertex="1">
          <mxGeometry x="395.5" y="732" width="49.5" height="30" as="geometry" />
        </mxCell>
        <mxCell id="SZwGPWXOhueTDgwkdfKL-23" value="计算节点S1" style="rounded=0;whiteSpace=wrap;html=1;fillColor=none;" parent="1" vertex="1">
          <mxGeometry x="260" y="464.5" width="90" height="35" as="geometry" />
        </mxCell>
        <mxCell id="SZwGPWXOhueTDgwkdfKL-24" value="" style="endArrow=classic;html=1;exitX=0.25;exitY=0;exitDx=0;exitDy=0;entryX=0.25;entryY=1;entryDx=0;entryDy=0;" parent="1" source="SZwGPWXOhueTDgwkdfKL-26" target="SZwGPWXOhueTDgwkdfKL-23" edge="1">
          <mxGeometry width="50" height="50" relative="1" as="geometry">
            <mxPoint x="290" y="535" as="sourcePoint" />
            <mxPoint x="490" y="520" as="targetPoint" />
          </mxGeometry>
        </mxCell>
        <mxCell id="SZwGPWXOhueTDgwkdfKL-26" value="计算节点S2" style="rounded=0;whiteSpace=wrap;html=1;fillColor=none;" parent="1" vertex="1">
          <mxGeometry x="260" y="562" width="90" height="35" as="geometry" />
        </mxCell>
        <mxCell id="SZwGPWXOhueTDgwkdfKL-29" value="计算节点SB" style="rounded=0;whiteSpace=wrap;html=1;fillColor=none;" parent="1" vertex="1">
          <mxGeometry x="430" y="561" width="90" height="35" as="geometry" />
        </mxCell>
        <mxCell id="SZwGPWXOhueTDgwkdfKL-30" value="计算节点SA" style="rounded=0;whiteSpace=wrap;html=1;fillColor=none;" parent="1" vertex="1">
          <mxGeometry x="430" y="464.5" width="90" height="35" as="geometry" />
        </mxCell>
        <mxCell id="SZwGPWXOhueTDgwkdfKL-31" value="" style="endArrow=classic;html=1;exitX=0.75;exitY=1;exitDx=0;exitDy=0;entryX=0.75;entryY=0;entryDx=0;entryDy=0;" parent="1" source="SZwGPWXOhueTDgwkdfKL-23" target="SZwGPWXOhueTDgwkdfKL-26" edge="1">
          <mxGeometry width="50" height="50" relative="1" as="geometry">
            <mxPoint x="302.5" y="560" as="sourcePoint" />
            <mxPoint x="302.5" y="512.5" as="targetPoint" />
          </mxGeometry>
        </mxCell>
        <mxCell id="SZwGPWXOhueTDgwkdfKL-32" value="" style="endArrow=classic;html=1;exitX=1;exitY=0.5;exitDx=0;exitDy=0;entryX=0;entryY=0.5;entryDx=0;entryDy=0;" parent="1" source="SZwGPWXOhueTDgwkdfKL-23" target="SZwGPWXOhueTDgwkdfKL-30" edge="1">
          <mxGeometry width="50" height="50" relative="1" as="geometry">
            <mxPoint x="347.5" y="512.5" as="sourcePoint" />
            <mxPoint x="347.5" y="560" as="targetPoint" />
          </mxGeometry>
        </mxCell>
        <mxCell id="SZwGPWXOhueTDgwkdfKL-33" value="" style="endArrow=classic;html=1;exitX=1;exitY=0.5;exitDx=0;exitDy=0;entryX=0;entryY=0.5;entryDx=0;entryDy=0;" parent="1" source="SZwGPWXOhueTDgwkdfKL-26" target="SZwGPWXOhueTDgwkdfKL-29" edge="1">
          <mxGeometry width="50" height="50" relative="1" as="geometry">
            <mxPoint x="347.5" y="512.5" as="sourcePoint" />
            <mxPoint x="347.5" y="560" as="targetPoint" />
          </mxGeometry>
        </mxCell>
        <mxCell id="SZwGPWXOhueTDgwkdfKL-34" value="" style="endArrow=classic;html=1;exitX=1;exitY=0.5;exitDx=0;exitDy=0;entryX=0;entryY=0.75;entryDx=0;entryDy=0;" parent="1" source="SZwGPWXOhueTDgwkdfKL-26" target="SZwGPWXOhueTDgwkdfKL-30" edge="1">
          <mxGeometry width="50" height="50" relative="1" as="geometry">
            <mxPoint x="347.5" y="512.5" as="sourcePoint" />
            <mxPoint x="347.5" y="560" as="targetPoint" />
          </mxGeometry>
        </mxCell>
        <mxCell id="SZwGPWXOhueTDgwkdfKL-35" value="" style="endArrow=classic;html=1;exitX=1;exitY=0.5;exitDx=0;exitDy=0;entryX=0;entryY=0.5;entryDx=0;entryDy=0;" parent="1" source="SZwGPWXOhueTDgwkdfKL-23" target="SZwGPWXOhueTDgwkdfKL-29" edge="1">
          <mxGeometry width="50" height="50" relative="1" as="geometry">
            <mxPoint x="360" y="577.5" as="sourcePoint" />
            <mxPoint x="440" y="503.75" as="targetPoint" />
          </mxGeometry>
        </mxCell>
        <mxCell id="SZwGPWXOhueTDgwkdfKL-81" value="密文" style="text;html=1;align=center;verticalAlign=middle;resizable=0;points=[];labelBackgroundColor=#ffffff;" parent="SZwGPWXOhueTDgwkdfKL-35" vertex="1" connectable="0">
          <mxGeometry x="-0.1281" y="-1" relative="1" as="geometry">
            <mxPoint as="offset" />
          </mxGeometry>
        </mxCell>
        <mxCell id="SZwGPWXOhueTDgwkdfKL-36" value="华控清交" style="text;html=1;strokeColor=none;fillColor=none;align=center;verticalAlign=middle;whiteSpace=wrap;rounded=0;" parent="1" vertex="1">
          <mxGeometry x="451" y="538" width="60" height="20" as="geometry" />
        </mxCell>
        <mxCell id="SZwGPWXOhueTDgwkdfKL-37" value="平安银行" style="text;html=1;strokeColor=none;fillColor=none;align=center;verticalAlign=middle;whiteSpace=wrap;rounded=0;" parent="1" vertex="1">
          <mxGeometry x="451" y="443.5" width="60" height="20" as="geometry" />
        </mxCell>
        <mxCell id="SZwGPWXOhueTDgwkdfKL-38" value="互金协会" style="text;html=1;strokeColor=none;fillColor=none;align=center;verticalAlign=middle;whiteSpace=wrap;rounded=0;" parent="1" vertex="1">
          <mxGeometry x="275" y="443.5" width="60" height="20" as="geometry" />
        </mxCell>
        <mxCell id="SZwGPWXOhueTDgwkdfKL-41" value="光大信托" style="text;html=1;strokeColor=none;fillColor=none;align=center;verticalAlign=middle;whiteSpace=wrap;rounded=0;" parent="1" vertex="1">
          <mxGeometry x="275" y="538" width="60" height="20" as="geometry" />
        </mxCell>
        <mxCell id="SZwGPWXOhueTDgwkdfKL-42" value="" style="shape=datastore;whiteSpace=wrap;html=1;" parent="1" vertex="1">
          <mxGeometry x="340.5" y="769" width="60" height="60" as="geometry" />
        </mxCell>
        <mxCell id="SZwGPWXOhueTDgwkdfKL-44" value="" style="endArrow=classic;html=1;exitX=0.5;exitY=0;exitDx=0;exitDy=0;entryX=0.25;entryY=1;entryDx=0;entryDy=0;" parent="1" source="SZwGPWXOhueTDgwkdfKL-42" target="SZwGPWXOhueTDgwkdfKL-9" edge="1">
          <mxGeometry width="50" height="50" relative="1" as="geometry">
            <mxPoint x="395" y="732" as="sourcePoint" />
            <mxPoint x="445" y="682" as="targetPoint" />
          </mxGeometry>
        </mxCell>
        <mxCell id="SZwGPWXOhueTDgwkdfKL-75" value="明文" style="text;html=1;align=center;verticalAlign=middle;resizable=0;points=[];labelBackgroundColor=#ffffff;" parent="SZwGPWXOhueTDgwkdfKL-44" vertex="1" connectable="0">
          <mxGeometry x="-0.1422" y="-1" relative="1" as="geometry">
            <mxPoint as="offset" />
          </mxGeometry>
        </mxCell>
        <mxCell id="SZwGPWXOhueTDgwkdfKL-45" value="平安银行" style="text;html=1;strokeColor=none;fillColor=none;align=center;verticalAlign=middle;whiteSpace=wrap;rounded=0;" parent="1" vertex="1">
          <mxGeometry x="365" y="849" width="60" height="20" as="geometry" />
        </mxCell>
        <mxCell id="SZwGPWXOhueTDgwkdfKL-52" value="" style="rounded=0;whiteSpace=wrap;html=1;dashed=1;" parent="1" vertex="1">
          <mxGeometry x="174" y="672" width="126" height="170" as="geometry" />
        </mxCell>
        <mxCell id="SZwGPWXOhueTDgwkdfKL-53" value="数据接入节点DS1" style="rounded=0;whiteSpace=wrap;html=1;" parent="1" vertex="1">
          <mxGeometry x="187" y="687" width="102.5" height="35" as="geometry" />
        </mxCell>
        <mxCell id="SZwGPWXOhueTDgwkdfKL-54" value="存证" style="rounded=0;whiteSpace=wrap;html=1;fillColor=none;" parent="1" vertex="1">
          <mxGeometry x="237" y="732" width="49.5" height="30" as="geometry" />
        </mxCell>
        <mxCell id="SZwGPWXOhueTDgwkdfKL-55" value="" style="shape=datastore;whiteSpace=wrap;html=1;" parent="1" vertex="1">
          <mxGeometry x="182" y="769" width="60" height="60" as="geometry" />
        </mxCell>
        <mxCell id="SZwGPWXOhueTDgwkdfKL-56" value="明文" style="endArrow=classic;html=1;exitX=0.5;exitY=0;exitDx=0;exitDy=0;entryX=0.25;entryY=1;entryDx=0;entryDy=0;" parent="1" source="SZwGPWXOhueTDgwkdfKL-55" target="SZwGPWXOhueTDgwkdfKL-53" edge="1">
          <mxGeometry width="50" height="50" relative="1" as="geometry">
            <mxPoint x="236.5" y="732" as="sourcePoint" />
            <mxPoint x="286.5" y="682" as="targetPoint" />
          </mxGeometry>
        </mxCell>
        <mxCell id="SZwGPWXOhueTDgwkdfKL-57" value="陆金所" style="text;html=1;strokeColor=none;fillColor=none;align=center;verticalAlign=middle;whiteSpace=wrap;rounded=0;" parent="1" vertex="1">
          <mxGeometry x="206.5" y="850" width="60" height="20" as="geometry" />
        </mxCell>
        <mxCell id="SZwGPWXOhueTDgwkdfKL-58" value="" style="rounded=0;whiteSpace=wrap;html=1;dashed=1;" parent="1" vertex="1">
          <mxGeometry x="494" y="672" width="126" height="170" as="geometry" />
        </mxCell>
        <mxCell id="SZwGPWXOhueTDgwkdfKL-59" value="数据接入节点DS3" style="rounded=0;whiteSpace=wrap;html=1;" parent="1" vertex="1">
          <mxGeometry x="504" y="687" width="107.5" height="35" as="geometry" />
        </mxCell>
        <mxCell id="SZwGPWXOhueTDgwkdfKL-60" value="存证" style="rounded=0;whiteSpace=wrap;html=1;fillColor=none;" parent="1" vertex="1">
          <mxGeometry x="557" y="732" width="49.5" height="30" as="geometry" />
        </mxCell>
        <mxCell id="SZwGPWXOhueTDgwkdfKL-61" value="" style="shape=datastore;whiteSpace=wrap;html=1;" parent="1" vertex="1">
          <mxGeometry x="502" y="769" width="60" height="60" as="geometry" />
        </mxCell>
        <mxCell id="SZwGPWXOhueTDgwkdfKL-62" value="明文" style="endArrow=classic;html=1;exitX=0.5;exitY=0;exitDx=0;exitDy=0;entryX=0.25;entryY=1;entryDx=0;entryDy=0;" parent="1" source="SZwGPWXOhueTDgwkdfKL-61" target="SZwGPWXOhueTDgwkdfKL-59" edge="1">
          <mxGeometry width="50" height="50" relative="1" as="geometry">
            <mxPoint x="556.5" y="732" as="sourcePoint" />
            <mxPoint x="606.5" y="682" as="targetPoint" />
          </mxGeometry>
        </mxCell>
        <mxCell id="SZwGPWXOhueTDgwkdfKL-63" value="广大信托" style="text;html=1;strokeColor=none;fillColor=none;align=center;verticalAlign=middle;whiteSpace=wrap;rounded=0;" parent="1" vertex="1">
          <mxGeometry x="526.5" y="850" width="60" height="20" as="geometry" />
        </mxCell>
        <mxCell id="SZwGPWXOhueTDgwkdfKL-66" value="" style="edgeStyle=orthogonalEdgeStyle;rounded=0;orthogonalLoop=1;jettySize=auto;html=1;entryX=0.5;entryY=1;entryDx=0;entryDy=0;" parent="1" source="SZwGPWXOhueTDgwkdfKL-43" target="SZwGPWXOhueTDgwkdfKL-1" edge="1">
          <mxGeometry relative="1" as="geometry">
            <mxPoint x="327.25" y="625" as="targetPoint" />
            <mxPoint x="250" y="685" as="sourcePoint" />
          </mxGeometry>
        </mxCell>
        <mxCell id="SZwGPWXOhueTDgwkdfKL-79" value="密文" style="text;html=1;align=center;verticalAlign=middle;resizable=0;points=[];labelBackgroundColor=#ffffff;" parent="SZwGPWXOhueTDgwkdfKL-66" vertex="1" connectable="0">
          <mxGeometry x="0.0175" relative="1" as="geometry">
            <mxPoint as="offset" />
          </mxGeometry>
        </mxCell>
        <mxCell id="SZwGPWXOhueTDgwkdfKL-67" value="陆金所" style="text;html=1;strokeColor=none;fillColor=none;align=center;verticalAlign=middle;whiteSpace=wrap;rounded=0;" parent="1" vertex="1">
          <mxGeometry x="361.5" y="300" width="60" height="20" as="geometry" />
        </mxCell>
        <mxCell id="SZwGPWXOhueTDgwkdfKL-69" value="" style="rounded=0;whiteSpace=wrap;html=1;dashed=1;" parent="1" vertex="1">
          <mxGeometry x="602.5" y="440" width="126" height="170" as="geometry" />
        </mxCell>
        <mxCell id="SZwGPWXOhueTDgwkdfKL-70" value="结果接收节点" style="rounded=0;whiteSpace=wrap;html=1;" parent="1" vertex="1">
          <mxGeometry x="612.5" y="455" width="107.5" height="35" as="geometry" />
        </mxCell>
        <mxCell id="SZwGPWXOhueTDgwkdfKL-71" value="存证" style="rounded=0;whiteSpace=wrap;html=1;fillColor=none;" parent="1" vertex="1">
          <mxGeometry x="665.5" y="500" width="49.5" height="30" as="geometry" />
        </mxCell>
        <mxCell id="SZwGPWXOhueTDgwkdfKL-72" value="" style="shape=datastore;whiteSpace=wrap;html=1;" parent="1" vertex="1">
          <mxGeometry x="610.5" y="537" width="60" height="60" as="geometry" />
        </mxCell>
        <mxCell id="SZwGPWXOhueTDgwkdfKL-73" value="" style="endArrow=classic;html=1;exitX=0.25;exitY=1;exitDx=0;exitDy=0;" parent="1" source="SZwGPWXOhueTDgwkdfKL-70" target="SZwGPWXOhueTDgwkdfKL-72" edge="1">
          <mxGeometry width="50" height="50" relative="1" as="geometry">
            <mxPoint x="665" y="500" as="sourcePoint" />
            <mxPoint x="715" y="450" as="targetPoint" />
          </mxGeometry>
        </mxCell>
        <mxCell id="SZwGPWXOhueTDgwkdfKL-76" value="明文" style="text;html=1;align=center;verticalAlign=middle;resizable=0;points=[];labelBackgroundColor=#ffffff;" parent="SZwGPWXOhueTDgwkdfKL-73" vertex="1" connectable="0">
          <mxGeometry x="-0.0569" relative="1" as="geometry">
            <mxPoint as="offset" />
          </mxGeometry>
        </mxCell>
        <mxCell id="SZwGPWXOhueTDgwkdfKL-74" value="陆金所" style="text;html=1;strokeColor=none;fillColor=none;align=center;verticalAlign=middle;whiteSpace=wrap;rounded=0;" parent="1" vertex="1">
          <mxGeometry x="635.5" y="410" width="60" height="20" as="geometry" />
        </mxCell>
        <mxCell id="WDAiJp-4TPZIHqZEOYhD-1" value="分布式存储服务" style="rounded=0;whiteSpace=wrap;html=1;dashed=1;" vertex="1" parent="1">
          <mxGeometry x="156" y="900" width="623.5" height="40" as="geometry" />
        </mxCell>
        <mxCell id="WDAiJp-4TPZIHqZEOYhD-2" value="" style="endArrow=classic;html=1;exitX=0.985;exitY=0.405;exitDx=0;exitDy=0;exitPerimeter=0;" edge="1" parent="1" source="SZwGPWXOhueTDgwkdfKL-72" target="WDAiJp-4TPZIHqZEOYhD-3">
          <mxGeometry width="50" height="50" relative="1" as="geometry">
            <mxPoint x="670" y="570" as="sourcePoint" />
            <mxPoint x="760" y="560" as="targetPoint" />
          </mxGeometry>
        </mxCell>
        <mxCell id="WDAiJp-4TPZIHqZEOYhD-3" value="业务系统" style="rounded=0;whiteSpace=wrap;html=1;" vertex="1" parent="1">
          <mxGeometry x="757" y="547" width="70" height="30" as="geometry" />
        </mxCell>
        <mxCell id="WDAiJp-4TPZIHqZEOYhD-5" value="" style="endArrow=classic;html=1;exitX=0.5;exitY=1;exitDx=0;exitDy=0;entryX=0.819;entryY=0;entryDx=0;entryDy=0;entryPerimeter=0;" edge="1" parent="1" source="SZwGPWXOhueTDgwkdfKL-69" target="WDAiJp-4TPZIHqZEOYhD-1">
          <mxGeometry width="50" height="50" relative="1" as="geometry">
            <mxPoint x="440" y="780" as="sourcePoint" />
            <mxPoint x="490" y="730" as="targetPoint" />
          </mxGeometry>
        </mxCell>
        <mxCell id="WDAiJp-4TPZIHqZEOYhD-6" value="" style="endArrow=classic;html=1;exitX=0.75;exitY=1;exitDx=0;exitDy=0;entryX=0.179;entryY=0.015;entryDx=0;entryDy=0;entryPerimeter=0;" edge="1" parent="1" source="SZwGPWXOhueTDgwkdfKL-52" target="WDAiJp-4TPZIHqZEOYhD-1">
          <mxGeometry width="50" height="50" relative="1" as="geometry">
            <mxPoint x="262" y="840" as="sourcePoint" />
            <mxPoint x="262" y="900" as="targetPoint" />
          </mxGeometry>
        </mxCell>
        <mxCell id="WDAiJp-4TPZIHqZEOYhD-7" value="" style="endArrow=classic;html=1;entryX=0.179;entryY=0.015;entryDx=0;entryDy=0;entryPerimeter=0;" edge="1" parent="1">
          <mxGeometry width="50" height="50" relative="1" as="geometry">
            <mxPoint x="425" y="841" as="sourcePoint" />
            <mxPoint x="424.99649999999986" y="900.0000000000001" as="targetPoint" />
          </mxGeometry>
        </mxCell>
        <mxCell id="WDAiJp-4TPZIHqZEOYhD-8" value="" style="endArrow=classic;html=1;entryX=0.179;entryY=0.015;entryDx=0;entryDy=0;entryPerimeter=0;" edge="1" parent="1">
          <mxGeometry width="50" height="50" relative="1" as="geometry">
            <mxPoint x="590" y="842" as="sourcePoint" />
            <mxPoint x="589.9964999999997" y="901" as="targetPoint" />
          </mxGeometry>
        </mxCell>
      </root>
    </mxGraphModel>
  </diagram>
</mxfile>
